<svg width="117" height="98" viewBox="0 0 117 98" fill="none" xmlns="http://www.w3.org/2000/svg">
<g opacity="0.64">
<path d="M52.708 95.1398L50.488 94.2518C49.4766 93.8324 49.156 93.0677 49.5013 92.1304C49.8713 91.1683 50.6606 90.823 51.672 91.2424L53.226 91.859L54.04 89.7623L54.706 90.0337L52.708 95.1398ZM53.004 92.4264L51.672 91.8837C50.9073 91.563 50.4386 91.785 50.192 92.377C49.9453 92.9691 50.1673 93.4377 50.932 93.7584L52.264 94.3011L53.004 92.4264Z" fill="#FFFCF6"/>
<path d="M46.0976 92.1798L43.9023 90.823C43.0143 90.2804 42.7923 89.4663 43.2363 88.7263C43.5816 88.1836 44.1243 87.8383 44.7656 88.0356C44.2723 87.5916 44.4203 87.1476 44.667 86.6543C44.9136 86.1609 45.259 85.6676 45.185 85.1989L45.8756 85.6429C45.925 85.9389 45.5303 86.3829 45.333 86.8763C45.1356 87.3696 44.9876 87.8136 45.5796 88.2083L47.109 89.1457L48.3423 87.1723L48.959 87.5423L46.0976 92.1798ZM45.5056 88.8743C44.9383 88.5043 44.3463 88.3563 43.9269 89.0223C43.6556 89.491 43.6803 89.9597 44.2476 90.3297L45.8016 91.2917L46.7883 89.6637L45.5056 88.8743Z" fill="#FFFCF6"/>
<path d="M39.8566 87.9611L37.0445 85.4451L37.4639 84.9764L39.7332 86.9991L40.8926 85.6917L38.7712 83.817L39.1906 83.3483L41.3119 85.2724L42.5699 83.8663L40.2759 81.819L40.6952 81.3503L43.5319 83.891L39.8566 87.9611Z" fill="#FFFCF6"/>
<path d="M34.7507 83.1021L34.1587 82.3128L36.7487 78.144L32.0619 79.5747L31.4699 78.7853L35.8114 75.4306L36.2307 75.9979L32.6046 78.7853L37.2667 77.3793L37.6614 77.8727L35.0713 81.9921L38.6974 79.2047L39.1168 79.772L34.7507 83.1021Z" fill="#FFFCF6"/>
<path d="M29.7184 75.8014L29.3731 75.16L34.2078 72.5453L34.5531 73.1867L29.7184 75.8014Z" fill="#FFFCF6"/>
<path d="M29.6188 66.822C30.9015 66.3287 31.8882 66.822 32.3322 68.1047C32.8256 69.4367 32.5049 70.448 31.1235 70.9414L27.8428 72.1501L27.5962 71.4594L30.8769 70.2507C31.7895 69.93 32.0856 69.19 31.7402 68.302C31.4195 67.4387 30.7289 67.1427 29.8409 67.488L26.5601 68.6967L26.3135 68.006L29.6188 66.822Z" fill="#FFFCF6"/>
<path d="M25.4013 64.5766L25.2533 63.5899L29.5454 61.1725L24.7353 60.1612L24.5873 59.1745L30.014 58.3358L30.1127 59.0265L25.6233 59.7171L30.384 60.7285L30.458 61.3452L26.2153 63.7132L30.7047 63.0225L30.8034 63.7132L25.4013 64.5766Z" fill="#FFFCF6"/>
<path d="M24.6126 51.5032L24.9826 48.9625C25.1306 47.9265 25.7719 47.3838 26.6353 47.5071C27.2766 47.6058 27.7946 47.9758 27.8686 48.6418C28.0907 48.0251 28.5593 47.9511 29.102 48.0005C29.6447 48.0498 30.2367 48.1485 30.6314 47.9018L30.508 48.7158C30.2367 48.8885 29.694 48.6911 29.1267 48.7158C28.584 48.7158 28.1153 48.7898 28.0167 49.4805L27.77 51.2566L30.0887 51.6019L29.99 52.3419L24.6126 51.5032ZM27.4246 49.6285C27.5233 48.9378 27.4246 48.3458 26.6353 48.2471C26.1173 48.1731 25.6733 48.4198 25.5746 49.0612L25.3033 50.8619L27.2026 51.1332L27.4246 49.6285Z" fill="#FFFCF6"/>
<path d="M26.6101 41.8085C27.1775 40.1558 28.7562 39.7611 30.1869 40.2545C31.593 40.7231 32.629 42.0059 32.0616 43.6586C31.4943 45.3113 29.9156 45.706 28.4849 45.2126C27.0542 44.7686 26.0428 43.4612 26.6101 41.8085ZM31.445 43.4859C31.8643 42.2279 30.9516 41.3152 29.9156 40.9698C28.8795 40.6245 27.5968 40.7725 27.1775 42.0305C26.7581 43.2886 27.6708 44.2013 28.7069 44.5466C29.7429 44.8919 31.0256 44.7439 31.445 43.4859Z" fill="#FFFCF6"/>
<path d="M30.014 34.3603C30.8773 32.8556 32.5301 32.7816 33.8128 33.5216C35.0955 34.2616 35.8601 35.7169 34.9721 37.2463C34.0841 38.7757 32.456 38.825 31.1733 38.085C29.8906 37.2956 29.126 35.8403 30.014 34.3603ZM34.4541 36.9256C35.1201 35.7663 34.4048 34.7056 33.4674 34.1629C32.5054 33.5956 31.2473 33.5216 30.5567 34.6563C29.8906 35.8156 30.606 36.8763 31.5434 37.419C32.5054 37.9863 33.7634 38.0603 34.4541 36.9256Z" fill="#FFFCF6"/>
<path d="M33.394 29.4507L34.06 28.686L38.6234 30.4867L36.3787 26.1206L37.0447 25.3559L41.1148 29.0314L40.6461 29.5494L37.2421 26.4906L39.4868 30.8074L39.0674 31.2761L34.5287 29.5L37.9327 32.5588L37.4641 33.0768L33.394 29.4507Z" fill="#FFFCF6"/>
<path d="M43.2119 22.396C42.6692 21.804 42.0525 21.878 41.4605 22.322C40.9918 22.692 40.5971 23.2347 41.0411 23.8267C41.4358 24.3694 42.2252 23.9254 43.0392 23.5553C43.8532 23.1853 44.7412 22.8893 45.3826 23.7774C46.0732 24.7147 45.4566 25.7754 44.6672 26.3674C43.6805 27.1074 42.4965 27.2554 41.6825 26.1947L42.2498 25.7754C42.7925 26.5154 43.6805 26.3674 44.3219 25.8741C44.8646 25.4794 45.3086 24.8874 44.8152 24.246C44.3712 23.654 43.5819 24.0487 42.7678 24.4187C41.9538 24.7887 41.0905 25.1094 40.4985 24.32C39.8078 23.432 40.3258 22.4207 41.1151 21.8286C42.0032 21.138 43.0145 21.064 43.7545 22.0013L43.2119 22.396Z" fill="#FFFCF6"/>
<path d="M47.8481 23.0873L48.5881 22.6926L48.9827 23.4326L48.2427 23.8273L47.8481 23.0873Z" fill="#FFFCF6"/>
<path d="M53.1523 15.6126L55.0764 15.0699C55.5451 14.9466 56.1617 14.7739 56.5071 14.8726C56.9018 14.9713 57.2964 15.2673 57.4444 15.81C57.6171 16.3773 57.4198 16.8706 56.9758 17.216C57.6664 17.1667 58.1598 17.5613 58.3325 18.2274C58.5545 18.992 58.1845 19.9047 57.1484 20.2007L54.6077 20.9161L53.1523 15.6126ZM55.1504 20.0774L56.9264 19.5841C57.5431 19.4114 57.8145 18.9427 57.6664 18.3507C57.4691 17.66 56.8524 17.6353 56.2604 17.7833L54.657 18.252L55.1504 20.0774ZM54.4844 17.6847L55.8904 17.3147C56.7044 17.0927 56.9264 16.7226 56.7784 16.18C56.5811 15.4399 56.0384 15.4893 55.4217 15.6619L54.0157 16.032L54.4844 17.6847Z" fill="#FFFCF6"/>
<path d="M61.9828 13.7386L62.7969 13.6646L65.4363 18.9187L64.6223 18.9927L63.8822 17.414L61.5882 17.636L61.1195 19.338L60.3548 19.412L61.9828 13.7386ZM61.7362 16.9946L63.5862 16.822L62.4269 14.3799L61.7362 16.9946Z" fill="#FFFCF6"/>
<path d="M67.7306 13.4654L68.4953 13.5394L70.9867 18.2015L71.3567 13.7861L72.0474 13.8354L71.6034 19.3115L70.8141 19.2622L68.3226 14.6495L67.9526 19.0155L67.2619 18.9662L67.7306 13.4654Z" fill="#FFFCF6"/>
<path d="M75.5254 14.4531L76.2161 14.6504L75.5007 17.2898L78.9048 15.3658L79.7928 15.6124L76.9808 17.1418L78.4361 20.9159L77.5481 20.6693L76.3641 17.4625L75.2541 18.0298L74.736 19.8799L74.0454 19.6826L75.5254 14.4531Z" fill="#FFFCF6"/>
<path d="M86.2805 18.4489L86.8972 18.8189L85.6638 20.8416L88.1305 22.3216L89.3639 20.2989L89.9806 20.6689L87.1192 25.3557L86.5025 24.9857L87.8098 22.8396L85.3431 21.3596L84.0358 23.5056L83.4191 23.1356L86.2805 18.4489Z" fill="#FFFCF6"/>
<path d="M94.6669 24.2704C95.9496 25.4544 95.6782 27.0578 94.6669 28.1678C93.6555 29.2778 92.1015 29.6972 90.7941 28.5378C89.4867 27.3784 89.7827 25.7504 90.7941 24.6404C91.8055 23.5303 93.3595 23.111 94.6669 24.2704ZM91.2135 28.0691C92.2001 28.9571 93.4088 28.4885 94.1242 27.6744C94.8395 26.8604 95.2342 25.6271 94.2475 24.739C93.2608 23.851 92.0521 24.3197 91.3368 25.1337C90.6214 25.9477 90.2268 27.1811 91.2135 28.0691Z" fill="#FFFCF6"/>
<path d="M98.8846 29.8698L97.7746 28.4145L98.2433 28.0445L100.932 31.5226L100.463 31.8926L99.3533 30.4372L95.5052 33.3973L95.0612 32.8053L98.8846 29.8698Z" fill="#FFFCF6"/>
<path d="M102.438 33.9147L104.238 37.2448L103.696 37.5408L102.24 34.852L100.711 35.6907L102.068 38.1821L101.525 38.4781L100.168 35.9867L98.5156 36.8994L99.9957 39.6128L99.453 39.9088L97.6276 36.5541L102.438 33.9147Z" fill="#FFFCF6"/>
<path d="M105.471 40.1069L105.718 40.7976L101.129 42.4256L102.091 45.1637L101.499 45.361L100.291 41.9323L105.471 40.1069Z" fill="#FFFCF6"/>
</g>
<path d="M56.6888 53.891C55.8397 53.8004 55.2901 52.9897 55.5241 52.173C55.7425 51.4107 56.5912 50.9953 57.3228 51.2927L66.2148 54.9075L56.6888 53.891Z" fill="#FCD043"/>
<path d="M67.7788 45.1674C67.8955 44.453 68.6165 43.9817 69.3214 44.1591C69.9792 44.3247 70.3279 45.0218 70.0673 45.6504L66.1632 55.0659L67.7788 45.1674Z" fill="#FCD043"/>
<path d="M60.3502 47.272C59.8812 46.6597 60.1112 45.744 60.8401 45.3214C61.5204 44.9269 62.3574 45.1718 62.6231 45.843L66.2256 54.9436L60.3502 47.272Z" fill="#FCD043"/>
<path d="M74.194 49.0671C74.839 48.5801 75.7312 48.7198 76.0931 49.3643C76.4309 49.9659 76.1199 50.7647 75.4312 51.0647L66.2545 55.0608L74.194 49.0671Z" fill="#FCD043"/>
<path d="M75.8536 56.1417C76.7028 56.2323 77.2524 57.043 77.0184 57.8597C76.8 58.622 75.9513 59.0374 75.2197 58.74L66.3277 55.1252L75.8536 56.1417Z" fill="#FCD043"/>
<path d="M64.7637 64.865C64.6471 65.5795 63.9261 66.0508 63.2212 65.8734C62.5633 65.7078 62.2146 65.0107 62.4753 64.3821L66.3793 54.9666L64.7637 64.865Z" fill="#FCD043"/>
<path d="M72.2719 62.7187C72.7408 63.331 72.5109 64.2467 71.782 64.6693C71.1017 65.0638 70.2647 64.8189 69.999 64.1477L66.3965 55.047L72.2719 62.7187Z" fill="#FCD043"/>
<path d="M58.4295 60.9193C57.7845 61.4062 56.8922 61.2665 56.5303 60.622C56.1925 60.0204 56.5035 59.2216 57.1923 58.9217L66.369 54.9255L58.4295 60.9193Z" fill="#FCD043"/>
</svg>
