<svg width="100" height="73" viewBox="0 0 100 73" fill="none" xmlns="http://www.w3.org/2000/svg">
<g id="label">
<g id="text">
<path id="Vector" d="M5.02384 72.8896L3.90256 70.2733C3.40421 69.069 3.77797 68.1554 4.85772 67.657C5.979 67.1587 6.93416 67.5324 7.43251 68.7368L8.22156 70.564L10.6718 69.4843L11.004 70.2733L5.02384 72.8896ZM7.5571 70.8547L6.89263 69.2766C6.51887 68.363 5.93747 68.1554 5.23148 68.4461C4.52549 68.7368 4.31784 69.3182 4.6916 70.2318L5.35607 71.8099L7.5571 70.8547Z" fill="#FFFCF6"/>
<path id="Vector_2" d="M1.95193 64.833L1.24594 61.8429C0.955236 60.6386 1.45358 59.7665 2.45028 59.5173C3.1978 59.3512 3.94531 59.5173 4.31907 60.2233C4.27755 59.4343 4.77589 59.1851 5.39883 58.9774C6.02176 58.7698 6.72775 58.6452 7.05998 58.1884L7.26763 59.1436C7.05998 59.4343 6.35399 59.4758 5.77259 59.725C5.19118 59.9741 4.69283 60.2233 4.85895 61.0539L5.3573 63.1303L8.05667 62.5074L8.26432 63.338L1.95193 64.833ZM4.23602 61.5522C4.0699 60.7632 3.69614 60.1402 2.78251 60.3479C2.15957 60.514 1.78581 60.9293 1.95193 61.7183L2.45028 63.8363L4.65131 63.2964L4.23602 61.5522Z" fill="#FFFCF6"/>
<path id="Vector_3" d="M0.249173 56.0288L-2.33856e-07 51.5437L0.74752 51.5022L0.955164 55.1152L3.03161 54.9906L2.82396 51.6267L3.57148 51.5852L3.7376 54.9906L5.98016 54.866L5.77251 51.2115L6.52003 51.1699L6.76921 55.6966L0.249173 56.0288Z" fill="#FFFCF6"/>
<path id="Vector_4" d="M0.0415649 47.6401L0.20768 46.4773L5.89714 45.1484L0.747556 42.4075L0.913671 41.2447L7.39218 42.0752L7.26759 42.9058L1.86884 42.1998L6.97689 44.9407L6.89383 45.6882L1.2459 46.9756L6.64466 47.6816L6.52007 48.5122L0.0415649 47.6401Z" fill="#FFFCF6"/>
<path id="Vector_5" d="M1.95319 37.2586L2.20236 36.4281L8.47322 38.2969L8.22405 39.1274L1.95319 37.2586Z" fill="#FFFCF6"/>
<path id="Vector_6" d="M9.42816 29.6168C10.9232 30.2812 11.3385 31.5271 10.6325 32.9806C9.9265 34.5172 8.80522 35.0986 7.22713 34.3511L3.448 32.6069L3.82176 31.8178L7.60089 33.562C8.63911 34.0604 9.51121 33.6866 9.96803 32.6484C10.4249 31.6517 10.0926 30.8211 9.0544 30.3643L5.27527 28.6201L5.64903 27.831L9.42816 29.6168Z" fill="#FFFCF6"/>
<path id="Vector_7" d="M7.76593 24.1764L8.47192 23.2212L14.1198 24.7993L10.9221 19.8989L11.6281 18.9438L16.9023 22.806L16.4039 23.4704L12.0434 20.2727L15.1996 25.1316L14.7428 25.713L9.17791 24.1349L13.5384 27.3326L13.0401 27.9971L7.76593 24.1764Z" fill="#FFFCF6"/>
<path id="Vector_8" d="M18.1066 12.5061L20.5568 10.6789C21.5535 9.93134 22.5502 10.0144 23.1731 10.845C23.6299 11.4679 23.7545 12.2154 23.2561 12.8384C23.9621 12.5061 24.419 12.8384 24.8342 13.3367C25.2495 13.8351 25.6648 14.4165 26.2047 14.541L25.4157 15.1225C25.0419 15.0394 24.7512 14.4165 24.2528 13.9596C23.796 13.5028 23.3392 13.1706 22.6747 13.6689L20.9721 14.9563L22.6332 17.1989L21.9272 17.7388L18.1066 12.5061ZM22.0518 13.2952C22.7163 12.7968 23.1316 12.2154 22.5502 11.4679C22.1764 10.9696 21.595 10.8035 20.9721 11.2603L19.2278 12.5477L20.5983 14.3749L22.0518 13.2952Z" fill="#FFFCF6"/>
<path id="Vector_9" d="M27.9489 6.02782C29.8177 5.11419 31.4788 6.11088 32.2679 7.73051C33.0569 9.30861 32.8493 11.2605 30.9805 12.1741C29.1117 13.0877 27.4505 12.091 26.6615 10.4714C25.8309 8.89331 26.0801 6.94146 27.9489 6.02782ZM30.6067 11.5096C32.0187 10.8036 32.0187 9.26708 31.4373 8.10427C30.8559 6.94146 29.6516 5.9863 28.2396 6.69229C26.8276 7.39828 26.8276 8.93485 27.409 10.0977C27.9904 11.2605 29.1947 12.2156 30.6067 11.5096Z" fill="#FFFCF6"/>
<path id="Vector_10" d="M37.0854 2.62264C39.0788 2.08277 40.5323 3.41169 40.9891 5.11438C41.4459 6.81706 40.8645 8.68586 38.8296 9.22573C36.7947 9.76561 35.3827 8.43669 34.9259 6.734C34.5106 4.98979 35.092 3.12099 37.0854 2.62264ZM38.6635 8.51974C40.2 8.10446 40.4907 6.60941 40.1585 5.36355C39.8263 4.07615 38.8296 2.95487 37.293 3.32863C35.7564 3.74392 35.4657 5.23897 35.798 6.48483C36.1302 7.77223 37.1269 8.8935 38.6635 8.51974Z" fill="#FFFCF6"/>
<path id="Vector_11" d="M44.0632 1.33595L45.2675 1.25289L47.5931 6.61011L49.3789 1.04525L50.5832 0.96219L50.9154 7.48222L50.0849 7.52375L49.7942 2.08347L48.0499 7.60681L47.3024 7.64833L44.9768 2.33264L45.2675 7.77292L44.4369 7.81445L44.0632 1.33595Z" fill="#FFFCF6"/>
<path id="Vector_12" d="M58.266 3.66112C58.3075 2.70596 57.7261 2.24914 56.854 2.12455C56.148 2.0415 55.359 2.16608 55.2344 3.03819C55.1098 3.82724 56.148 4.11794 57.1447 4.4917C58.1414 4.86546 59.1381 5.3638 58.9304 6.6512C58.7228 8.02165 57.3108 8.39541 56.148 8.2293C54.6945 8.02165 53.5732 7.14954 53.7809 5.57145L54.6114 5.69603C54.4453 6.77579 55.3174 7.39872 56.2726 7.52331C57.0617 7.6479 57.9338 7.52331 58.0583 6.56814C58.1829 5.69604 57.1862 5.3638 56.1895 4.99004C55.1929 4.61628 54.1962 4.15947 54.3623 2.99666C54.5284 1.66773 55.8158 1.25244 56.9786 1.41856C58.3075 1.58467 59.2211 2.37373 59.055 3.78571L58.266 3.66112Z" fill="#FFFCF6"/>
<path id="Vector_13" d="M61.5886 8.14672L62.5437 8.43742L62.253 9.39258L61.2979 9.10187L61.5886 8.14672Z" fill="#FFFCF6"/>
<path id="Vector_14" d="M72.3445 6.31849L74.4209 7.4813C74.9193 7.772 75.5837 8.14576 75.7914 8.51952C76.0405 8.93481 76.1236 9.51621 75.7914 10.0976C75.4591 10.7206 74.8777 10.9697 74.2133 10.8867C74.8362 11.4265 74.9193 12.1741 74.504 12.8801C74.0472 13.7106 72.9674 14.1675 71.8461 13.5445L69.1052 12.0079L72.3445 6.31849ZM70.268 11.7588L72.1784 12.8385C72.8428 13.2123 73.4658 13.0462 73.8395 12.4232C74.2548 11.6757 73.7565 11.1358 73.1335 10.7621L71.3893 9.80692L70.268 11.7588ZM71.7215 9.18399L73.2166 10.0561C74.0887 10.5544 74.587 10.4298 74.9193 9.84844C75.3761 9.05939 74.8777 8.6441 74.2133 8.27034L72.7182 7.39824L71.7215 9.18399Z" fill="#FFFCF6"/>
<path id="Vector_15" d="M81.3551 12.1748L82.1026 12.7978L79.9016 19.4424L79.1541 18.8194L79.8601 16.8676L77.7421 15.1234L75.9149 16.1616L75.2089 15.5802L81.3551 12.1748ZM78.4066 14.7081L80.1093 16.1201L81.189 13.0885L78.4066 14.7081Z" fill="#FFFCF6"/>
<path id="Vector_16" d="M86.4215 16.7846L87.0029 17.4906L85.1757 23.5123L89.204 20.1069L89.7439 20.7299L84.7604 24.9658L84.1375 24.2598L85.9232 18.2797L81.9364 21.6435L81.3965 21.0206L86.4215 16.7846Z" fill="#FFFCF6"/>
<path id="Vector_17" d="M92.1518 24.1769L92.5671 24.9244L89.7432 26.544L94.2283 27.7899L94.7682 28.7451L91.1136 27.6653L89.1618 32.0674L88.6219 31.1122L90.3246 27.4162L88.9126 26.9593L86.9192 28.0806L86.5039 27.3331L92.1518 24.1769Z" fill="#FFFCF6"/>
<path id="Vector_18" d="M97.842 36.5932L98.0497 37.4238L95.3088 38.0883L96.1393 41.4106L98.8802 40.7461L99.0879 41.5767L92.734 43.1133L92.5263 42.2827L95.4333 41.5767L94.6028 38.2544L91.6957 38.9604L91.4881 38.1298L97.842 36.5932Z" fill="#FFFCF6"/>
<path id="Vector_19" d="M100.001 48.5536C100.085 50.63 98.5064 51.7513 96.7207 51.8344C94.9349 51.9174 93.2738 50.9623 93.1492 48.8858C93.0246 46.8094 94.6442 45.6881 96.43 45.605C98.2157 45.522 99.8769 46.4772 100.001 48.5536ZM93.8967 48.8443C93.9798 50.4224 95.3918 51.0453 96.6792 50.9623C97.9666 50.8792 99.337 50.1732 99.254 48.5951C99.1709 47.017 97.7589 46.3941 96.4715 46.4772C95.1841 46.5602 93.8137 47.2662 93.8967 48.8443Z" fill="#FFFCF6"/>
<path id="Vector_20" d="M98.8387 56.8175L99.1294 54.658L99.8354 54.741L99.1709 59.9321L98.4649 59.8491L98.7556 57.6896L93.0247 56.942L93.1492 56.0699L98.8387 56.8175Z" fill="#FFFCF6"/>
<path id="Vector_21" d="M98.4242 63.2137L97.1368 67.5327L96.4308 67.3251L97.4691 63.8366L95.4757 63.2552L94.5205 66.4945L93.8145 66.2868L94.7697 63.0476L92.6102 62.4247L91.572 65.9546L90.866 65.747L92.1534 61.3864L98.4242 63.2137Z" fill="#FFFCF6"/>
<path id="Vector_22" d="M95.7647 70.9791L95.3909 71.7682L90.1583 69.2764L88.6632 72.3911L87.9988 72.0589L89.8676 68.1552L95.7647 70.9791Z" fill="#FFFCF6"/>
</g>
<g id="icon">
<path id="Rectangle 93" d="M48.7328 36.0909C48.6135 35.1606 49.3383 34.3369 50.2763 34.3369C51.1518 34.3369 51.8282 35.1057 51.7169 35.974L50.2174 47.6705L48.7328 36.0909Z" fill="#FCD043"/>
<path id="Rectangle 95" d="M61.7958 46.1858C62.7262 46.0665 63.5498 46.7913 63.5498 47.7293C63.5498 48.6048 62.7811 49.2812 61.9127 49.1699L50.2163 47.6704L61.7958 46.1858Z" fill="#FCD043"/>
<path id="Rectangle 97" d="M57.3903 38.472C57.9639 37.7298 59.0588 37.6599 59.722 38.3232C60.3411 38.9422 60.2758 39.9641 59.5831 40.4994L50.2521 47.7097L57.3903 38.472Z" fill="#FCD043"/>
<path id="Rectangle 99" d="M59.4942 54.8499C60.2364 55.4234 60.3063 56.5183 59.6431 57.1816C59.024 57.8006 58.0021 57.7354 57.4668 57.0426L50.2565 47.7117L59.4942 54.8499Z" fill="#FCD043"/>
<path id="Rectangle 94" d="M51.6997 59.2499C51.819 60.1803 51.0942 61.0039 50.1562 61.0039C49.2808 61.0039 48.6043 60.2352 48.7156 59.3668L50.2152 47.6704L51.6997 59.2499Z" fill="#FCD043"/>
<path id="Rectangle 96" d="M38.6368 49.1555C37.7064 49.2748 36.8828 48.55 36.8828 47.612C36.8828 46.7365 37.6515 46.0601 38.5198 46.1714L50.2163 47.6709L38.6368 49.1555Z" fill="#FCD043"/>
<path id="Rectangle 98" d="M43.1151 56.9484C42.5416 57.6906 41.4466 57.7605 40.7834 57.0972C40.1643 56.4782 40.2296 55.4563 40.9223 54.921L50.2533 47.7107L43.1151 56.9484Z" fill="#FCD043"/>
<path id="Rectangle 100" d="M41.0164 40.5715C40.2742 39.998 40.2043 38.9031 40.8676 38.2398C41.4866 37.6208 42.5085 37.686 43.0438 38.3787L50.2541 47.7097L41.0164 40.5715Z" fill="#FCD043"/>
</g>
</g>
</svg>
